<svg xmlns="http://www.w3.org/2000/svg" width="820" height="785.522" viewBox="0 0 820 785.522"><path d="M703.209 293.971C660.531 126.15 513.064 5.007 339.969.148c-91.51-2.569-187.8 27.781-257.913 133.986-125.328 189.853 7.7 321.047 100.446 383.388a580.328 580.328 0 01119.951 107.811c62.646 74.339 183.162 166.717 326.692 21.976C733.179 542.4 731.637 405.757 703.209 293.971z" fill="#f2f2f2"/><path d="M819.05 667.701c0 41.194-179.763 117.822-406.2 117.822S0 713.642 0 672.452s186.414-36.11 412.85-36.11 406.2-9.835 406.2 31.359z" fill="#3f3d56"/><path d="M819.05 667.701c0 41.194-179.763 117.822-406.2 117.822S0 713.642 0 672.452s186.414-36.11 412.85-36.11 406.2-9.835 406.2 31.359z" opacity=".1"/><ellipse cx="410" cy="74.589" rx="410" ry="74.589" transform="translate(0 597.388)" fill="#3f3d56"/><path d="M565.219 418.303v199.483l33.367 54.379 2.54 4.136h131.659l2.66-258z" fill="#2f2e41"/><path d="M565.219 418.303v199.483l33.367 54.379 2.048-253.863z" opacity=".1"/><path d="M247.375 412.983v199.483l-33.367 54.378-2.54 4.136H79.809l-2.66-258z" fill="#2f2e41"/><path d="M247.376 412.983v199.483l-33.367 54.378-2.049-253.863z" opacity=".1"/><path d="M775.342 408.993v11.969H59.861v-17.288l66.494-34.577h590.471z" fill="#2f2e41"/><path d="M775.342 408.993v11.969H59.861v-17.288zm-613.08 59.846h-31.917l-13.3-9.31h59.845zm0 38.566h-31.917l-13.3-9.31h59.845zm0 54.526h-31.917l-13.3-9.31h59.845zm0 54.525h-31.917l-13.3-9.309h59.845zm488.07-142.298h31.917l13.3-9.309h-59.846zm0 38.566h31.917l13.3-9.309h-59.846zm0 54.526h31.917l13.3-9.309h-59.846zm0 54.526h31.917l13.3-9.31h-59.846z" opacity=".1"/><path d="M505.982 335.817l-4.436 28.32s-21.839 11.6-6.483 11.943 87.7 0 87.7 0 13.991 0-8.19-12.284l-4.436-29.687z" fill="#3f3d56"/><path d="M491.974 375.775a60.4 60.4 0 019.572-6.336l4.436-28.322 64.152.06 4.436 27.921a58.246 58.246 0 0110.251 6.745c2.849-.65 5.962-3.065-10.251-12.045l-4.436-29.687-64.152 1.706-4.436 28.32s-18.351 9.753-9.572 11.638z" opacity=".1"/><rect width="289.024" height="201.327" rx="10.695" transform="translate(393.205 138.414)" fill="#3f3d56"/><path fill="#f2f2f2" d="M402.93 149.162h269.574v150.825H402.93z"/><circle cx="1.706" cy="1.706" r="1.706" transform="translate(536.011 142.679)" fill="#f2f2f2"/><path d="M682.23 311.931v17.649a10.161 10.161 0 01-10.163 10.162h-268.7a10.161 10.161 0 01-10.162-10.163v-17.648z" fill="#3f3d56"/><circle cx="6.483" cy="6.483" r="6.483" transform="translate(531.234 319.438)" fill="#f2f2f2"/><path d="M527.613 394.509v3.413H344.03v-2.73l.253-.683 4.525-12.284h175.051zm70.649-3.341c-.334 1.43-1.6 2.938-4.45 4.364-10.237 5.118-31.052-1.365-31.052-1.365s-16.038-2.73-16.038-9.9a12.8 12.8 0 011.406-.836c4.3-2.277 18.574-7.9 43.877.238a10.553 10.553 0 014.81 3.152 5.033 5.033 0 011.447 4.343z" fill="#3f3d56"/><path d="M598.263 391.168c-12.53 4.8-23.7 5.159-35.161-2.8a25.171 25.171 0 00-14.973-4.931c4.3-2.277 18.574-7.9 43.877.238a10.553 10.553 0 014.81 3.152 5.033 5.033 0 011.447 4.343z" opacity=".1"/><ellipse cx="4.436" cy="1.365" rx="4.436" ry="1.365" transform="translate(578.116 385.637)" fill="#f2f2f2"/><path d="M527.613 394.512v3.413H344.03v-2.73l.253-.683z" opacity=".1"/><path d="M632.525 220.394c-1.448-1.448-20.037-24.865-23.175-28.727-3.38-3.862-4.828-3.138-7-2.9s-25.589 4.345-28.244 4.587c-2.655.483-4.345 1.448-2.655 3.862 1.448 2.173 16.9 23.9 20.278 28.969l-61.56 14.728-48.763-81.836c-1.931-2.9-2.414-3.862-6.759-3.621s-38.383 3.138-40.8 3.138c-2.414.241-5.07 1.207-2.656 7s41.039 88.837 42 91.251 3.862 6.276 10.38 4.828c6.759-1.69 29.934-7.725 42.729-11.1 6.759 12.07 20.278 36.694 22.934 40.315 3.38 4.828 5.794 3.862 10.863 2.414 4.1-1.207 63.248-22.451 65.9-23.658s4.345-1.931 2.414-4.587c-1.448-1.931-16.9-22.933-25.106-33.8 5.552-1.448 25.589-6.759 27.762-7.484 2.414-.724 2.9-1.931 1.448-3.38zm-111.77 22.933c-.724.241-35.245 8.449-36.935 8.932-1.931.483-1.931.241-1.931-.483-.483-.724-41.039-84.733-41.763-85.7-.483-.966-.483-1.931 0-1.931s32.59-2.9 33.555-2.9c1.207 0 .966.241 1.448.966 0 0 45.143 77.974 45.867 79.181.966 1.207.483 1.69-.241 1.931zm97.045 18.105c.483.966 1.207 1.448-.724 1.931-1.69.724-58.179 19.8-59.386 20.278s-1.931.724-3.38-1.448-19.8-33.8-19.8-33.8l60.11-15.691c1.448-.483 1.931-.724 2.9.724.966 1.69 19.8 27.279 20.278 28zm3.862-42.487c-1.448.241-23.416 5.794-23.416 5.794l-18.107-24.623c-.483-.724-.966-1.448.241-1.69s21.726-3.862 22.692-4.1 1.69-.483 2.9 1.207c1.207 1.448 16.657 21.244 17.381 21.968s-.241 1.207-1.69 1.448z" fill="#fb503b"/><circle cx="36.341" cy="36.341" r="36.341" transform="translate(338.635 111.786)" fill="#ffb9b9"/><path d="M348.198 166.297v57.38h59.293s-7.651-47.817-3.825-62.162z" fill="#ffb9b9"/><path d="M465.828 243.761s-56.424-27.734-56.424-29.647-5.738-14.345-9.563-14.345-36.341-10.52-54.511 4.782l-1.913 12.432-69.813 45.9 19.127 69.813s12.432 13.389 8.607 22.952 2.869 58.337 2.869 58.337l150.145-4.777v-65.031s4.782-15.3 7.651-20.083 0-19.127 0-19.127l22.949-28.691s-2.867-26.777-19.124-32.515z" fill="#d0cde1"/><path d="M275.994 286.319l4.3-23.43s-24.865 108.067-22 120.5 23.909 31.559 26.778 32.516 29.647-82.245 29.647-82.245z" opacity=".1"/><path d="M289.861 260.022l-16.258 2.869s-24.865 108.067-22 120.5 23.909 31.559 26.778 32.516 29.647-82.245 29.647-82.245z" fill="#d0cde1"/><path d="M471.088 292.056l8.129-15.78s11.476 108.067 3.825 118.586-37.915 14.456-37.915 14.456l-.339-78.531z" opacity=".1"/><path d="M472.523 263.844l12.432 12.432s11.476 108.067 3.825 118.586-37.914 14.459-37.914 14.459l-.339-78.531z" fill="#d0cde1"/><path d="M286.993 428.335s-27.734-10.52-32.516 9.563 11.476 109.979 11.476 109.979 10.52 67.9 17.214 69.813 36.341 2.869 41.123-5.738-14.345-96.591-14.345-96.591l110.936-1.913s-6.694 76.507-10.52 83.2-3.825 29.647 0 29.647 45.9-1.913 48.773-7.651S478.261 483.8 478.261 483.8s13.389-44.948-1.913-42.079-189.355-13.386-189.355-13.386z" fill="#3f3d56"/><path d="M450.531 614.821s9.563-6.694 14.345 0 6.694 14.345-14.345 25.821-37.3 8.607-37.3 6.694v-27.733zm-165.452-2.868s-9.563-6.694-14.345 0-6.694 14.345 14.345 25.821 37.3 8.607 37.3 6.694v-27.734zm90.132-509.649a30.735 30.735 0 00-10.674 1.521 41.265 41.265 0 00-7.6 4.023l-16.046 9.978a7.514 7.514 0 00-4.529 7l-2 15.014c-.506 3.789-.972 7.841.724 11.267 1.416 2.859 4.116 4.816 6.336 7.108a26.088 26.088 0 016.876 13.36c1.148 6.269.413 13.818 5.374 17.818 2.686 2.166 6.347 2.576 9.792 2.777a146.123 146.123 0 0028.221-1.086 11.229 11.229 0 004.264-1.195 11.711 11.711 0 003.741-4.448c3.583-6.1 7.275-12.589 7.237-19.663-.019-3.5-.915-7.258.766-10.328a40.372 40.372 0 012.886-3.748c2.081-2.923 2.486-6.68 2.825-10.252 1.083-11.41-.049-20.094-8.459-28.131-7.854-7.5-19.028-10.946-29.734-11.015z" fill="#2f2e41"/><path d="M285.942 541.314l-31.917 162.25h15.954l30.588-159.586zm102.402 13.302l19.949 186.185h13.3l-11.971-191.506zm54.525-5.319l27.927 123.68h13.3l-26.6-126.34zm-106.39-.002l-3.99 98.412h10.639l7.98-98.412z" fill="#2f2e41"/><path d="M263.334 524.029s-21.278-142.3 38.567-146.288 144.958 0 144.958 0 49.206-3.99 34.577 146.288c0 0 13.3 43.886-106.391 39.9s-111.711-39.9-111.711-39.9zm545.263 58.109c0 24.814-14.752 33.478-32.949 33.478s-32.949-8.664-32.949-33.478 32.954-56.381 32.954-56.381 32.944 31.567 32.944 56.381z" fill="#6c63ff"/><path d="M774.783 591.054l14.043-25.692-13.99 22.434.152-9.337 9.678-18.588-9.639 16.117.273-16.794 10.364-14.8-10.322 12.157.171-30.8-1.025 39.021-10.5-16.065 10.368 19.357-.973 18.766-.029-.5-12.148-16.973 12.111 18.732-.123 2.341-.022.035.01.193-2.491 25.029h3.328l.4-2.022 12.081-18.687-12.052 16.839z" fill="#3f3d56"/><path d="M796.692 669.444h-39.278l-10.152-57.377h57.377z" fill="#2f2e41"/><path fill="#3f3d56" d="M137.775 281.537h81.715v95.804h-81.715z"/><path fill="#f2f2f2" d="M150.455 296.403h56.355v66.072h-56.355z"/><path d="M195.698 321.67q-.865-.3-1.743-.549.145-.592.269-1.19c1.32-6.407.457-11.569-2.49-13.268-2.826-1.63-7.447.07-12.116 4.131q-.69.6-1.348 1.238-.442-.423-.9-.829c-4.891-4.343-9.79-6.173-12.738-4.469-2.823 1.634-3.661 6.487-2.471 12.559q.174.9.4 1.794c-.693.2-1.363.407-2 .631-5.734 2-9.4 5.133-9.4 8.383 0 3.357 3.932 6.724 9.905 8.765q.727.247 1.464.458-.239.959-.425 1.933c-1.133 5.967-.247 10.705 2.568 12.329 2.909 1.679 7.79-.047 12.542-4.2a34.17 34.17 0 001.133-1.042q.713.688 1.463 1.335c4.6 3.962 9.152 5.562 11.964 3.933 2.905-1.681 3.849-6.772 2.624-12.964q-.139-.709-.325-1.448.515-.152 1.008-.315c6.209-2.057 10.25-5.383 10.25-8.785 0-3.262-3.781-6.417-9.631-8.431z" fill="#53c1de"/><path d="M194.351 336.69c-.3.1-.6.193-.91.285a54.187 54.187 0 00-2.743-6.862 54.312 54.312 0 002.637-6.762c.553.16 1.092.329 1.61.508 5.013 1.725 8.07 4.276 8.07 6.243.001 2.091-3.299 4.811-8.664 6.588zm-2.224 4.409a19.624 19.624 0 01.261 7.147c-.322 1.739-.971 2.9-1.773 3.363-1.708.988-5.358-.3-9.295-3.684q-.677-.583-1.362-1.242a54.413 54.413 0 004.54-5.765 54.052 54.052 0 007.336-1.133q.166.669.294 1.307zm-22.5 10.341c-1.668.589-3 .606-3.8.143-1.708-.986-2.419-4.794-1.449-9.893q.174-.9.395-1.8a54.544 54.544 0 007.3 1.057 56.228 56.228 0 004.65 5.744q-.5.489-1.032.951a19.642 19.642 0 01-6.062 3.797zm-7.811-14.764a19.621 19.621 0 01-6.318-3.356c-1.343-1.151-2.021-2.293-2.021-3.22 0-1.973 2.941-4.489 7.845-6.2q.924-.322 1.864-.587a55.529 55.529 0 002.64 6.84 56.322 56.322 0 00-2.672 6.938q-.676-.189-1.338-.415zm2.619-17.828c-1.018-5.2-.343-9.128 1.359-10.111 1.812-1.046 5.819.446 10.043 4.2.27.24.541.491.812.75a55.421 55.421 0 00-4.613 5.711 56.522 56.522 0 00-7.229 1.121q-.208-.83-.372-1.669zm23.369 5.769q-.794-1.372-1.646-2.709c1.728.219 3.384.508 4.939.864a49.292 49.292 0 01-1.734 4.664q-.747-1.425-1.559-2.817zm-9.532-9.28a49.631 49.631 0 013.188 3.847q-3.2-.151-6.4 0a50.338 50.338 0 013.215-3.846zm-9.588 9.3q-.8 1.383-1.53 2.8a51.208 51.208 0 01-1.721-4.687 51.666 51.666 0 014.911-.844q-.865 1.346-1.662 2.729zm1.709 13.828a49.206 49.206 0 01-4.99-.8 52.268 52.268 0 011.756-4.782q.735 1.42 1.535 2.8.814 1.411 1.7 2.781zm7.944 6.566a49.692 49.692 0 01-3.259-3.9q1.556.062 3.169.062 1.656 0 3.269-.073a49.14 49.14 0 01-3.181 3.912zm11.043-12.233a49.051 49.051 0 011.823 4.764 48.933 48.933 0 01-5.055.862q.859-1.362 1.663-2.757.817-1.421 1.569-2.873zm-3.574 1.714q-1.231 2.137-2.6 4.192c-1.607.115-3.268.174-4.96.174s-3.325-.052-4.9-.155q-1.4-2.048-2.649-4.2t-2.311-4.365q1.069-2.225 2.3-4.367 1.232-2.141 2.626-4.184a65.448 65.448 0 019.873.001q1.378 2.037 2.615 4.167t2.335 4.347q-1.085 2.233-2.328 4.384zm4.774-25.84c1.814 1.046 2.519 5.265 1.38 10.8q-.112.54-.244 1.076a55.41 55.41 0 00-7.242-1.144 54.494 54.494 0 00-4.579-5.714q.61-.587 1.246-1.143c4-3.48 7.736-4.854 9.44-3.872z" fill="#fff"/><path d="M178.245 325.264a4.837 4.837 0 11-4.837 4.837 4.837 4.837 0 014.837-4.837" fill="#53c1de"/></svg>