<svg xmlns="http://www.w3.org/2000/svg" width="768.846" height="576.811" viewBox="0 0 768.846 576.811"><g transform="translate(-486.49 -2495.89)"><path d="M1255.336 2527.04v517.746c0 15.408-14.852 27.914-33.2 27.914H519.677c-18.336 0-33.187-12.523-33.187-27.914V2527.04c0-15.408 14.852-31.15 33.187-31.15l702.433 1.712c18.332-.009 33.226 14.013 33.226 29.438z" fill="#e8eaf2"/><path d="M1255.336 2527.194v23.968H486.49v-23.968a31.3 31.3 0 0131.3-31.3h706.2a31.313 31.313 0 0131.338 31.3z" fill="#65617d"/><circle cx="11.06" cy="11.06" r="11.06" transform="translate(512.675 2512.462)" fill="#fa5959" opacity=".8"/><circle cx="11.06" cy="11.06" r="11.06" transform="translate(544.87 2512.462)" fill="#fed253" opacity=".8"/><circle cx="11.06" cy="11.06" r="11.06" transform="translate(577.055 2512.462)" fill="#8ccf4d" opacity=".8"/></g></svg>